HIERARCHY
ROOT Hips
{
	OFFSET 0.000000 0.000000 0.000000 
	CHANNELS 6 Xposition Yposition Zposition Yrotation Zrotation Xrotation 
	JOINT Lumbar
	{
		OFFSET 0.000000 0.000000 0.000000 
		CHANNELS 3 Zrotation Xrotation Yrotation
		JOINT Neck
		{
			OFFSET 0.000000 0.445665 0.000000 
			CHANNELS 3 Zrotation Xrotation Yrotation
			End Site
			{
				OFFSET 0.000000 0.227535 0.000000 
			}
		}
		JOINT RightShoulder
		{
			OFFSET 0.019635 0.377685 0.194865 
			CHANNELS 3 Zrotation Xrotation Yrotation
			JOINT RightElbow
			{
				OFFSET 0.000000 -0.243375 0.000000 
				CHANNELS 2 Zrotation Yrotation
				JOINT RightWrist
				{
					OFFSET 0.000000 -0.264825 0.000000 
					CHANNELS 2 Zrotation Xrotation
					End Site
					{
						OFFSET 0.006600 -0.176220 0.000990 
					}
				}
			}
		}
		JOINT LeftShoulder
		{
			OFFSET 0.019635 0.377685 -0.194865 
			CHANNELS 3 Zrotation Xrotation Yrotation
			JOINT LeftElbow
			{
				OFFSET 0.000000 -0.243375 0.000000 
				CHANNELS 2 Zrotation Yrotation
				JOINT LeftWrist
				{
					OFFSET 0.000000 -0.264825 0.000000 
					CHANNELS 2 Zrotation Xrotation
					End Site
					{
						OFFSET 0.006600 -0.176220 -0.000990 
					}
				}
			}
		}
	}
	JOINT RightHip
	{
		OFFSET 0.052140 -0.069960 0.075570 
		CHANNELS 3 Zrotation Xrotation Yrotation
		JOINT RightKnee
		{
			OFFSET 0.000000 -0.402270 0.000000 
			CHANNELS 1 Zrotation
			JOINT RightAnkle
			{
				OFFSET 0.000000 -0.404085 0.000000 
				CHANNELS 3 Zrotation Xrotation Yrotation
				End Site
				{
					OFFSET 0.204105 -0.089430 0.008415 
				}
			}
		}
	}
	JOINT LeftHip
	{
		OFFSET 0.052140 -0.069960 -0.075570 
		CHANNELS 3 Zrotation Xrotation Yrotation
		JOINT LeftKnee
		{
			OFFSET 0.000000 -0.402270 0.000000 
			CHANNELS 1 Zrotation
			JOINT LeftAnkle
			{
				OFFSET 0.000000 -0.404085 0.000000 
				CHANNELS 3 Zrotation Xrotation Yrotation
				End Site
				{
					OFFSET 0.204105 -0.089430 -0.008415 
				}
			}
		}
	}
}
MOTION
Frames: 14
Frame Time: 0.02
-0.00035 -0.00041 -0.0007 23.94815 -20.63706 -6.43192 44.44262 1.6773 -3.99438 -10.18994 -1.89467 -0.41085 -22.0982 -6.59689 -6.71376 31.52268 136.00066 15.21384 9.10324 -28.03141 10.24478 7.68107 29.39794 -131.29414 22.5269 -4.92741 32.08115 1.88924 -9.61784 -20.03028 -7.44471 -3.93364 -2.74306 34.676 3.52931 -0.0158 -26.54826 -8.57323 4.9819 3.38512
-0.00056 -0.00045 -0.00041 23.97645 -20.64912 -6.43962 44.43538 1.66128 -4.02486 -10.28248 -1.88647 -0.41152 -22.42845 -6.82448 -6.29889 31.31989 131.40996 14.38625 8.14857 -28.19736 10.34322 7.37174 29.45258 -128.01483 21.73212 -4.4269 32.11746 1.89754 -9.65059 -20.03385 -7.44747 -3.93389 -2.74331 34.71545 3.62233 0.31744 -26.55657 -8.54012 4.94678 3.36335
-0.00077 -0.00049 -0.00012 24.00472 -20.66111 -6.44729 44.42811 1.64532 -4.0554 -10.37478 -1.87839 -0.41219 -22.75786 -7.05154 -5.88519 31.11817 126.83327 13.56123 7.19686 -28.36244 10.44123 7.06324 29.50745 -124.74924 20.94074 -3.92845 32.15364 1.90582 -9.68323 -20.03741 -7.45022 -3.93416 -2.74357 34.75478 3.71508 0.64965 -26.56485 -8.50711 4.91177 3.34164
-0.00098 -0.00053 0.00018 24.03295 -20.67312 -6.45496 44.42088 1.62935 -4.0858 -10.46705 -1.87022 -0.41286 -23.08714 -7.27845 -5.4716 30.91607 122.25669 12.7362 6.24514 -28.52783 10.53935 6.75489 29.56197 -121.48077 20.1486 -3.42958 32.18984 1.9141 -9.71587 -20.04097 -7.45297 -3.93441 -2.74382 34.7941 3.80781 0.98185 -26.57314 -8.47411 4.87676 3.31993
-0.00118 -0.00058 0.00047 24.06118 -20.68521 -6.46265 44.41371 1.61334 -4.11611 -10.5595 -1.86192 -0.41353 -23.41715 -7.50584 -5.05684 30.71275 117.66615 11.90858 5.29045 -28.69419 10.63797 6.44566 29.61613 -118.19683 19.35261 -2.9284 32.22616 1.92238 -9.74865 -20.04454 -7.45572 -3.93465 -2.74407 34.83355 3.90083 1.31511 -26.58145 -8.441 4.84166 3.29816
-0.00139 -0.00062 0.00076 24.08954 -20.69699 -6.47027 44.40624 1.59746 -4.14711 -10.65147 -1.85432 -0.4142 -23.74526 -7.7322 -4.64537 30.51441 113.11884 11.08906 4.34505 -28.85653 10.73467 6.13865 29.6725 -114.96973 18.57088 -2.4357 32.26207 1.93066 -9.78099 -20.04807 -7.45849 -3.93496 -2.74435 34.87262 3.993 1.64512 -26.58966 -8.40821 4.80682 3.27658
-0.0016 -0.00066 0.00105 24.11761 -20.70937 -6.47804 44.39937 1.58134 -4.17668 -10.74435 -1.84528 -0.41486 -24.07695 -7.96032 -4.22787 30.30623 108.48981 10.25422 3.38206 -29.0269 10.83511 5.82779 29.7243 -111.63315 17.76167 -1.92666 32.29876 1.93895 -9.81415 -20.05167 -7.46122 -3.93513 -2.74456 34.91239 4.08675 1.98118 -26.59808 -8.37483 4.77151 3.25465
-0.0018 -0.0007 0.00135 24.14593 -20.72121 -6.48566 44.39193 1.56545 -4.20759 -10.83632 -1.8376 -0.41553 -24.40511 -8.18692 -3.81567 30.10719 103.93566 9.43341 2.43519 -29.18964 10.93216 5.51999 29.78044 -108.39511 16.97716 -1.43234 32.33476 1.94721 -9.8466 -20.05521 -7.46398 -3.93542 -2.74483 34.95155 4.1791 2.31192 -26.60631 -8.34197 4.73661 3.23303
-0.00201 -0.00074 0.00164 24.17466 -20.73237 -6.49312 44.38388 1.54978 -4.24007 -10.92753 -1.83147 -0.4162 -24.73001 -8.41141 -3.41078 29.91905 99.473 8.62979 1.50803 -29.34393 11.02481 5.21772 29.8415 -105.28639 16.22522 -0.95728 32.3698 1.95552 -9.87801 -20.05865 -7.4668 -3.9359 -2.74521 34.98986 4.26957 2.63527 -26.61428 -8.3098 4.70228 3.21181
-0.00221 -0.00079 0.00193 24.20137 -20.74736 -6.50161 44.37961 1.53268 -4.26331 -11.02418 -1.81612 -0.41686 -25.07688 -8.64729 -2.96632 29.66741 94.48367 7.72734 0.46747 -29.5495 11.14203 4.88898 29.87308 -101.46023 15.29304 -0.3752 32.41 1.9638 -9.91489 -20.06261 -7.46933 -3.9354 -2.74506 35.03275 4.37033 2.99846 -26.62366 -8.27384 4.66485 3.18837
-0.00243 -0.00082 0.00222 24.23208 -20.75432 -6.50783 44.36717 1.51869 -4.30615 -11.10864 -1.82037 -0.41755 -25.37528 -8.85957 -2.60381 29.55018 90.60608 7.03341 -0.3338 -29.64519 11.20792 4.61273 29.96756 -99.13057 14.73648 -0.01648 32.43954 1.97197 -9.94054 -20.06553 -7.47244 -3.93689 -2.74596 35.06613 4.44969 3.27931 -26.63011 -8.24577 4.63388 3.16954
-0.00267 -0.0008 0.00248 24.27598 -20.73865 -6.50846 44.33384 1.5126 -4.40248 -11.16518 -1.87771 -0.41833 -25.55662 -9.00307 -2.4809 29.8021 89.80459 6.91725 -0.47245 -29.45022 11.12749 4.50907 30.23102 -101.08757 15.25865 -0.29641 32.43767 1.98118 -9.93274 -20.06495 -7.4775 -3.9447 -2.75028 35.07199 4.46712 3.31755 -26.6281 -8.24027 4.62148 3.16421
-0.00293 -0.00076 0.00272 24.32342 -20.71506 -6.50669 44.29205 1.50977 -4.51851 -11.20841 -1.9548 -0.41914 -25.68618 -9.12359 -2.43758 30.18898 90.11547 7.00962 -0.37188 -29.14293 10.99665 4.45267 30.55856 -104.51254 16.14878 -0.79562 32.42549 1.99002 -9.91423 -20.06342 -7.48307 -3.95436 -2.75555 35.06858 4.46363 3.27597 -26.62324 -8.24251 4.6154 3.16335
-0.00319 -0.00073 0.00297 24.36787 -20.69549 -6.50557 44.25314 1.50585 -4.62572 -11.25418 -2.02338 -0.41994 -25.82922 -9.25734 -2.34816 30.51382 89.89975 7.00268 -0.38481 -28.87989 10.89231 4.35619 30.85887 -107.14989 16.83957 -1.17798 32.41939 1.9981 -9.90221 -20.06275 -7.48815 -3.96266 -2.76005 35.07031 4.47182 3.28205 -26.61995 -8.2406 4.60586 3.15988
